{"title":"Apenas o Fim.2009.DVDRip.XviD.EsLimaF","uid":5464898,"size":732860988,"categoryP":"video","categoryS":"movies","magnet":"?xt=urn:btih:a04fb829d37e58b39970a6987f452fe28a35124d&amp;dn=Apenas+o+Fim.2009.DVDRip.XviD.EsLimaF&amp;tr=udp%3A%2F%2Ftracker.openbittorrent.com%3A80&amp;tr=udp%3A%2F%2Fopen.demonii.com%3A1337&amp;tr=udp%3A%2F%2Ftracker.coppersurfer.tk%3A6969&amp;tr=udp%3A%2F%2Fexodus.desync.com%3A6969","seeders":8,"leechers":1,"uploader":"eslimaf","files":-1,"time":1269587398,"description":"Sinopse: Uma garota abandona seus pais, seus amigos e o namorado, sem dar explicaÃƒÂ§ÃƒÂµes, fazendo de tudo para fugir de sua vida comum. Mas, antes de partir, a moÃƒÂ§a resolve aparecer na faculdade pela ÃƒÂºltima vez. Durante o caminho, os dois conversam sobre o relacionamento, lembrando o passado, imaginando o futuro e discutindo uma sÃƒÂ©rie de medos e questÃƒÂµes envolvendo a geraÃƒÂ§ÃƒÂ£o da qual fazem parte.\n\nGeneral\nComplete name                    : Apenas.o.Fim.2009.DVDRip.XviD.EsLimaF.avi\nFormat                           : AVI\nFormat/Info                      : Audio Video Interleave\nFile size                        : 699 MiB\nDuration                         : 1h 20mn\nOverall bit rate                 : 1 210 Kbps\nWriting application              : VirtualDubMod 1.5.4.1 (build 2178/release)\nWriting library                  : VirtualDubMod build 2178/release\n\nVideo\nID                               : 0\nFormat                           : MPEG-4 Visual\nFormat profile                   : Advanced Simple@L5\nFormat settings, BVOP            : Yes\nFormat settings, QPel            : No\nFormat settings, GMC             : No warppoints\nFormat settings, Matrix          : Custom\nCodec ID                         : XVID\nCodec ID/Hint                    : XviD\nDuration                         : 1h 20mn\nBit rate                         : 1 073 Kbps\nWidth                            : 592 pixels\nHeight                           : 336 pixels\nDisplay aspect ratio             : 16:9\nFrame rate                       : 29.970 fps\nResolution                       : 8 bits\nColorimetry                      : 4:2:0\nScan type                        : Progressive\nBits/(Pixel*Frame)               : 0.180\nStream size                      : 620 MiB (89%)\nWriting library                  : XviD 1.1.0 (UTC 2005-11-22)\n\nAudio\nID                               : 1\nFormat                           : MPEG Audio\nFormat version                   : Version 1\nFormat profile                   : Layer 3\nFormat_Settings_Mode             : Joint stereo\nFormat_Settings_ModeExtension    : MS Stereo\nCodec ID                         : 55\nCodec ID/Hint                    : MP3\nDuration                         : 1h 20mn\nBit rate mode                    : Constant\nBit rate                         : 128 Kbps\nChannel(s)                       : 2 channels\nSampling rate                    : 48.0 KHz\nStream size                      : 73.9 MiB (11%)\nAlignment                        : Aligned on interleaves\nInterleave, duration             : 67 ms (2.00 video frames)\nInterleave, preload duration     : 504 ms\nWriting library                  : LAME3.98r\nEncoding settings                : -m j -V 4 -q 2 -lowpass 17 -b 128\nLanguage                         : Portugues","torrent":{"xt":"urn:btih:a04fb829d37e58b39970a6987f452fe28a35124d","amp;dn":"Apenas+o+Fim.2009.DVDRip.XviD.EsLimaF","amp;tr":["udp%3A%2F%2Ftracker.openbittorrent.com%3A80","udp%3A%2F%2Fopen.demonii.com%3A1337","udp%3A%2F%2Ftracker.coppersurfer.tk%3A6969","udp%3A%2F%2Fexodus.desync.com%3A6969"],"infoHash":"a04fb829d37e58b39970a6987f452fe28a35124d","infoHashBuffer":{"type":"Buffer","data":[160,79,184,41,211,126,88,179,153,112,166,152,127,69,47,226,138,53,18,77]},"announce":[],"urlList":[]}}